<?xml version="1.0" encoding="utf-8"?>
<!-- Generator: Adobe Illustrator 25.4.1, SVG Export Plug-In . SVG Version: 6.00 Build 0)  -->
<svg version="1.1" id="Layer_1" xmlns="http://www.w3.org/2000/svg" xmlns:xlink="http://www.w3.org/1999/xlink" x="0px" y="0px"
	 viewBox="0 0 14.625 11.35" style="enable-background:new 0 0 14.625 11.35;" xml:space="preserve">
<style type="text/css">
	.st0{fill:#6C8F77;}
</style>
<path class="st0" d="M14.473,5.459L13,4.24V1.803C13,1.701,12.898,1.6,12.797,1.6h-0.812c-0.127,0.025-0.203,0.102-0.203,0.203V3.25
	l-3.58-2.945C7.973,0.102,7.643,0,7.312,0C6.957,0,6.627,0.102,6.398,0.305L0.127,5.459C0.051,5.535,0,5.637,0,5.764
	c0,0.102,0.025,0.203,0.076,0.254l0.279,0.33C0.406,6.424,0.533,6.475,0.66,6.475c0.102,0,0.178-0.025,0.254-0.076l0.711-0.584
	v4.723c0,0.457,0.355,0.812,0.812,0.812h3.25c0.432,0,0.787-0.356,0.812-0.812V7.896h1.625v2.641c0,0.457,0.355,0.812,0.812,0.812
	h3.25c0.432,0,0.787-0.356,0.812-0.787V5.814l0.686,0.584C13.762,6.449,13.838,6.5,13.939,6.5c0.127,0,0.254-0.076,0.33-0.152
	l0.254-0.33c0.051-0.051,0.102-0.152,0.102-0.254C14.625,5.637,14.549,5.535,14.473,5.459z M11.756,10.131H9.344V7.49
	C9.318,7.059,8.963,6.703,8.531,6.678H6.094C5.637,6.703,5.281,7.059,5.281,7.49v2.641H2.844V4.824l4.469-3.682l4.469,3.682
	L11.756,10.131z"/>
</svg>
