<?xml version="1.0" encoding="utf-8"?>
<!-- Generator: Adobe Illustrator 24.3.0, SVG Export Plug-In . SVG Version: 6.00 Build 0)  -->
<svg version="1.1" id="Layer_1" xmlns="http://www.w3.org/2000/svg" xmlns:xlink="http://www.w3.org/1999/xlink" x="0px" y="0px"
	 viewBox="0 0 7.124 9.426" style="enable-background:new 0 0 7.124 9.426;" xml:space="preserve">
<style type="text/css">
	.st0{fill:#6C8F77;}
</style>
<path class="st0" d="M3.563,9.426c-0.06,0-0.119-0.015-0.172-0.045C2.363,8.807,1.506,7.97,0.91,6.954C0.314,5.939,0,4.782,0,3.605
	c0-0.048,0-0.096,0.001-0.144c0.023-1.066,0.42-1.964,1.148-2.596C1.794,0.307,2.651,0,3.563,0c0.912,0,1.768,0.307,2.412,0.865
	c0.729,0.633,1.126,1.53,1.148,2.596c0,0.047,0.002,0.096,0.002,0.144C7.125,4.8,6.801,5.974,6.187,7
	C5.591,7.994,4.745,8.815,3.734,9.381C3.682,9.41,3.623,9.426,3.563,9.426z M3.563,0.703c-0.743,0-1.436,0.246-1.951,0.693
	C1.036,1.895,0.723,2.614,0.705,3.476c0,0.043-0.001,0.086-0.001,0.129c0,1.019,0.263,2.02,0.764,2.907S2.69,8.142,3.563,8.667
	c0.829-0.501,1.524-1.198,2.022-2.029c0.548-0.917,0.838-1.965,0.837-3.033c0-0.043,0-0.086-0.001-0.129
	C6.402,2.614,6.088,1.895,5.514,1.396C4.998,0.949,4.305,0.703,3.563,0.703z"/>
<path class="st0" d="M3.572,5.827c-0.437,0-0.865-0.13-1.228-0.373C1.98,5.211,1.697,4.866,1.529,4.462
	C1.362,4.058,1.318,3.613,1.404,3.185c0.085-0.429,0.296-0.823,0.605-1.132s0.703-0.52,1.132-0.605
	c0.429-0.085,0.873-0.042,1.277,0.126C4.822,1.741,5.167,2.024,5.41,2.388c0.243,0.364,0.373,0.791,0.373,1.228
	C5.782,4.202,5.549,4.764,5.134,5.178C4.72,5.593,4.158,5.826,3.572,5.827z M3.572,2.109c-0.298,0-0.59,0.088-0.838,0.254
	S2.293,2.764,2.179,3.039C2.065,3.315,2.035,3.618,2.093,3.91c0.058,0.292,0.202,0.561,0.413,0.772
	c0.211,0.211,0.479,0.354,0.772,0.413C3.57,5.153,3.873,5.123,4.149,5.009C4.424,4.895,4.66,4.701,4.825,4.453
	c0.166-0.248,0.254-0.539,0.254-0.838c-0.001-0.4-0.16-0.782-0.442-1.065C4.354,2.269,3.971,2.11,3.572,2.109L3.572,2.109z"/>
</svg>
