<?xml version="1.0" encoding="utf-8"?>
<!-- Generator: Adobe Illustrator 25.4.1, SVG Export Plug-In . SVG Version: 6.00 Build 0)  -->
<svg version="1.1" id="Layer_1" xmlns="http://www.w3.org/2000/svg" xmlns:xlink="http://www.w3.org/1999/xlink" x="0px" y="0px"
	 viewBox="0 0 60 60" style="enable-background:new 0 0 60 60;" xml:space="preserve">
<style type="text/css">
	.st0{fill:#FFFFFF;}
</style>
<path class="st0" d="M30,0C13.42,0,0,13.417,0,30c0,16.58,13.417,30,30,30c16.58,0,30-13.417,30-30C60,13.42,46.581,0,30,0z
	 M30,57.5C14.836,57.5,2.5,45.164,2.5,30S14.836,2.5,30,2.5S57.5,14.836,57.5,30S45.164,57.5,30,57.5z"/>
<path class="st0" d="M30,6.25C16.904,6.25,6.25,16.904,6.25,30S16.904,53.75,30,53.75S53.75,43.096,53.75,30S43.096,6.25,30,6.25z
	 M30,51.25C18.282,51.25,8.75,41.717,8.75,30S18.282,8.75,30,8.75S51.25,18.282,51.25,30S41.717,51.25,30,51.25z"/>
<path class="st0" d="M31.103,13.877c-0.347-0.17-0.754-0.17-1.101,0c-0.954,0.468-9.366,4.681-11.013,8.479
	c-1.312,3.028-0.898,6.43,1.171,9.58c2.165,3.297,5.78,5.71,9.142,6.207v8.106c0,0.69,0.56,1.25,1.25,1.25
	c0.69,0,1.25-0.56,1.25-1.25v-8.106c3.362-0.498,6.978-2.909,9.142-6.207c2.068-3.15,2.484-6.552,1.171-9.58
	C40.47,18.56,32.056,14.346,31.103,13.877z M38.855,30.565c-1.688,2.571-4.495,4.536-7.052,5.045v-2.476l3.939-1.969
	c0.618-0.309,0.868-1.06,0.559-1.678c-0.309-0.617-1.06-0.867-1.677-0.559l-2.82,1.41v-1.835l3.939-1.969
	c0.618-0.309,0.868-1.06,0.559-1.677c-0.309-0.618-1.06-0.868-1.677-0.559l-2.82,1.41v-2.608c0-0.69-0.56-1.25-1.25-1.25
	c-0.69,0-1.25,0.56-1.25,1.25v2.608l-2.821-1.41c-0.618-0.309-1.369-0.059-1.677,0.559c-0.309,0.618-0.059,1.369,0.559,1.677
	l3.939,1.97v1.834l-2.821-1.41c-0.618-0.309-1.369-0.059-1.677,0.559c-0.309,0.618-0.059,1.369,0.559,1.678l3.939,1.97v2.476
	c-2.558-0.509-5.365-2.474-7.052-5.045c-0.921-1.404-2.271-4.206-0.968-7.214c0.914-2.108,5.949-5.254,9.27-6.953
	c3.321,1.698,8.355,4.843,9.27,6.953C41.126,26.359,39.776,29.163,38.855,30.565z"/>
</svg>
