<?xml version="1.0" encoding="utf-8"?>
<!-- Generator: Adobe Illustrator 24.3.0, SVG Export Plug-In . SVG Version: 6.00 Build 0)  -->
<svg version="1.1" id="Layer_1" xmlns="http://www.w3.org/2000/svg" xmlns:xlink="http://www.w3.org/1999/xlink" x="0px" y="0px"
	 viewBox="0 0 8.125 13" style="enable-background:new 0 0 8.125 13;" xml:space="preserve">
<style type="text/css">
	.st0{fill:#242424;}
</style>
<path class="st0" d="M4.875,10.562c0-0.432-0.381-0.812-0.812-0.812c-0.457,0-0.812,0.381-0.812,0.812
	c0,0.457,0.355,0.812,0.812,0.812C4.494,11.375,4.875,11.019,4.875,10.562z M8.125,1.219C8.125,0.559,7.566,0,6.906,0H1.219
	C0.533,0,0,0.559,0,1.219v10.562C0,12.467,0.533,13,1.219,13h5.688c0.66,0,1.219-0.533,1.219-1.219V1.219z M6.906,11.629
	c0,0.102-0.076,0.152-0.152,0.152H1.371c-0.102,0-0.152-0.051-0.152-0.152V1.371c0-0.076,0.051-0.152,0.152-0.152h5.383
	c0.076,0,0.152,0.076,0.152,0.152V11.629z"/>
</svg>
