<?xml version="1.0" encoding="utf-8"?>
<!-- Generator: Adobe Illustrator 25.4.1, SVG Export Plug-In . SVG Version: 6.00 Build 0)  -->
<svg version="1.1" id="Layer_1" xmlns="http://www.w3.org/2000/svg" xmlns:xlink="http://www.w3.org/1999/xlink" x="0px" y="0px"
	 viewBox="0 0 13.005 12.98" style="enable-background:new 0 0 13.005 12.98;" xml:space="preserve">
<style type="text/css">
	.st0{fill:#6C8F77;}
</style>
<path class="st0" d="M12.091,0.564L9.704,0.03c-0.559-0.127-1.117,0.152-1.32,0.66L7.267,3.28c-0.203,0.457-0.076,1.016,0.33,1.346
	l1.016,0.838c-0.711,1.32-1.828,2.412-3.148,3.148L4.626,7.597c-0.33-0.406-0.889-0.533-1.346-0.33l-2.59,1.092
	C0.183,8.587-0.096,9.146,0.03,9.704l0.533,2.387c0.127,0.533,0.609,0.889,1.143,0.889c6.221,0,11.299-5.027,11.299-11.273
	C13.005,1.173,12.624,0.691,12.091,0.564z M1.757,11.761L1.224,9.476l2.488-1.066l1.422,1.727c2.514-1.193,3.809-2.488,5.002-5.002
	L8.409,3.712l1.066-2.488l2.311,0.533C11.761,7.267,7.267,11.736,1.757,11.761z"/>
</svg>
