<?xml version="1.0" encoding="utf-8"?>
<!-- Generator: Adobe Illustrator 24.3.0, SVG Export Plug-In . SVG Version: 6.00 Build 0)  -->
<svg version="1.1" id="Layer_1" xmlns="http://www.w3.org/2000/svg" xmlns:xlink="http://www.w3.org/1999/xlink" x="0px" y="0px"
	 viewBox="0 0 14.286 10" style="enable-background:new 0 0 14.286 10;" xml:space="preserve">
<style type="text/css">
	.st0{fill:#FFFFFF;}
</style>
<path class="st0" d="M1.071,0C0.929,0,0.794,0.028,0.67,0.078l6.077,5.647c0.266,0.247,0.515,0.247,0.781,0l6.088-5.647
	C13.492,0.028,13.356,0,13.214,0H1.071L1.071,0z M0.011,0.926C0.005,0.973,0,1.023,0,1.071v7.857C0,9.522,0.478,10,1.071,10h12.143
	c0.594,0,1.071-0.478,1.071-1.071V1.071c0-0.049-0.005-0.098-0.011-0.145l-6.021,5.58c-0.626,0.58-1.607,0.581-2.232,0L0.011,0.926
	L0.011,0.926z"/>
</svg>
