<?xml version="1.0" encoding="utf-8"?>
<!-- Generator: Adobe Illustrator 24.3.0, SVG Export Plug-In . SVG Version: 6.00 Build 0)  -->
<svg version="1.1" id="Layer_1" xmlns="http://www.w3.org/2000/svg" xmlns:xlink="http://www.w3.org/1999/xlink" x="0px" y="0px"
	 viewBox="0 0 13 9.75" style="enable-background:new 0 0 13 9.75;" xml:space="preserve">
<style type="text/css">
	.st0{fill:#242424;}
</style>
<path class="st0" d="M11.781,0H1.219C0.533,0,0,0.559,0,1.219v7.312C0,9.217,0.533,9.75,1.219,9.75h10.562
	C12.441,9.75,13,9.217,13,8.531V1.219C13,0.559,12.441,0,11.781,0z M11.781,1.219V2.26c-0.584,0.482-1.498,1.193-3.428,2.717
	C7.922,5.307,7.084,6.119,6.5,6.094C5.891,6.119,5.053,5.307,4.621,4.977C2.691,3.453,1.777,2.742,1.219,2.26V1.219H11.781z
	 M1.219,8.531V3.834c0.559,0.457,1.396,1.117,2.641,2.107C4.418,6.373,5.408,7.338,6.5,7.312c1.066,0.025,2.031-0.939,2.615-1.371
	c1.244-0.99,2.082-1.65,2.666-2.107v4.697H1.219z"/>
</svg>
