<svg width="62" height="34" viewBox="0 0 62 34" fill="none" xmlns="http://www.w3.org/2000/svg">
<mask id="mask0_804_1999" style="mask-type:alpha" maskUnits="userSpaceOnUse" x="0" y="0" width="62" height="34">
<g clip-path="url(#clip0_804_1999)">
<path d="M53.5082 2.97759C53.3961 3.01677 53.2119 3.05595 52.9637 3.1108C52.7155 3.16565 52.5554 3.21267 52.4753 3.25968C52.3552 3.33804 52.2992 3.4399 52.2992 3.56528C52.2992 3.69065 52.3472 3.79251 52.4353 3.88654C52.5314 3.97273 52.6435 4.01975 52.7876 4.01975C52.9477 4.01975 53.0998 3.9649 53.252 3.86303C53.364 3.78468 53.4281 3.69065 53.4681 3.57311C53.4921 3.50259 53.5002 3.35371 53.5002 3.14998V2.97759H53.5082ZM52.3152 2.26454L51.5065 2.12349C51.5946 1.80223 51.7467 1.56715 51.9709 1.41044C52.1951 1.26156 52.5234 1.1832 52.9637 1.1832C53.364 1.1832 53.6603 1.23022 53.8524 1.32425C54.0446 1.41827 54.1807 1.53581 54.2608 1.67685C54.3408 1.8179 54.3809 2.07648 54.3809 2.46043L54.3729 3.47908C54.3729 3.769 54.3889 3.98057 54.4129 4.12161C54.4449 4.25482 54.493 4.4037 54.573 4.56042H53.6923C53.6683 4.50557 53.6443 4.41937 53.6122 4.30184C53.5962 4.24699 53.5882 4.21564 53.5802 4.19997C53.4281 4.34885 53.268 4.45072 53.0918 4.52907C52.9157 4.5996 52.7315 4.63878 52.5314 4.63878C52.1871 4.63878 51.9069 4.54475 51.7067 4.36452C51.5065 4.17647 51.4024 3.94923 51.4024 3.66714C51.4024 3.47908 51.4505 3.31453 51.5385 3.16565C51.6266 3.01677 51.7547 2.90707 51.9229 2.82871C52.083 2.75035 52.3232 2.67983 52.6354 2.62498C53.0518 2.54662 53.34 2.4761 53.5002 2.41342V2.31939C53.5002 2.147 53.4601 2.02946 53.3721 1.95894C53.284 1.88842 53.1319 1.84924 52.8917 1.84924C52.7315 1.84924 52.6114 1.88058 52.5234 1.94327C52.4433 2.00596 52.3712 2.10782 52.3152 2.26454ZM50.9701 2.23319L50.0894 2.38991C50.0573 2.21752 49.9933 2.09215 49.8892 1.99812C49.7771 1.91193 49.641 1.87275 49.4809 1.87275C49.2567 1.87275 49.0805 1.95111 48.9444 2.09999C48.8083 2.24887 48.7443 2.49961 48.7443 2.85222C48.7443 3.24401 48.8083 3.51826 48.9444 3.68281C49.0805 3.84736 49.2567 3.92572 49.4889 3.92572C49.657 3.92572 49.7931 3.87871 49.9052 3.78468C50.0173 3.69065 50.0894 3.5261 50.1374 3.29886L51.0181 3.44774C50.93 3.83953 50.7539 4.13729 50.4897 4.34102C50.2335 4.54475 49.8892 4.64661 49.4488 4.64661C48.9524 4.64661 48.5601 4.49773 48.2719 4.19214C47.9756 3.88654 47.8315 3.46341 47.8315 2.92274C47.8315 2.37424 47.9756 1.95111 48.2719 1.65335C48.5681 1.34775 48.9684 1.19887 49.4648 1.19887C49.8732 1.19887 50.2015 1.28507 50.4497 1.45745C50.6899 1.61417 50.858 1.88058 50.9701 2.23319ZM45.6297 0.713055V0.133208H47.6794V0.705219H45.6297V0.713055ZM46.2142 4.56042V1.25372H47.1109V4.56042H46.2142ZM45.3094 4.56042H44.4127V2.87573C44.4127 2.51528 44.3967 2.28804 44.3567 2.18618C44.3166 2.08431 44.2526 1.99812 44.1725 1.94327C44.0844 1.88842 43.9803 1.85708 43.8603 1.85708C43.7081 1.85708 43.564 1.89626 43.4439 1.98245C43.3238 2.06864 43.2357 2.17834 43.1877 2.31155C43.1397 2.44476 43.1156 2.70334 43.1156 3.07162V4.56825H42.2189V1.25372H43.0516V1.73954C43.3478 1.36342 43.7161 1.17537 44.1645 1.17537C44.3647 1.17537 44.5408 1.20671 44.7009 1.27723C44.8611 1.34775 44.9892 1.43395 45.0692 1.54365C45.1493 1.65335 45.2134 1.77088 45.2454 1.91193C45.2774 2.04514 45.2934 2.24103 45.2934 2.49961V4.56042H45.3094ZM39.1204 2.85222C39.1204 3.2205 39.1924 3.49475 39.3445 3.67498C39.4967 3.8552 39.6808 3.94139 39.897 3.94139C40.1052 3.94139 40.2733 3.86303 40.4174 3.69848C40.5535 3.53393 40.6256 3.26752 40.6256 2.89923C40.6256 2.55446 40.5535 2.29588 40.4094 2.12349C40.2653 1.95894 40.0892 1.87275 39.881 1.87275C39.6648 1.87275 39.4807 1.95111 39.3365 2.12349C39.1924 2.28804 39.1204 2.53095 39.1204 2.85222ZM38.2396 1.25372H39.0723V1.73954C39.1764 1.57499 39.3285 1.44178 39.5127 1.33208C39.6968 1.23022 39.905 1.17537 40.1292 1.17537C40.5215 1.17537 40.8578 1.32424 41.13 1.62984C41.4022 1.9276 41.5383 2.35073 41.5383 2.88356C41.5383 3.43207 41.4022 3.86303 41.122 4.16863C40.8498 4.47422 40.5135 4.63094 40.1212 4.63094C39.937 4.63094 39.7689 4.59176 39.6168 4.52124C39.4646 4.45072 39.3045 4.32534 39.1364 4.14512V5.81414H38.2396V1.25372V1.25372ZM34.7808 0.713055V0.133208H36.8305V0.705219H34.7808V0.713055ZM36.5102 4.56042V4.06676C36.3901 4.24699 36.222 4.38019 36.0218 4.48206C35.8217 4.58392 35.6135 4.63094 35.3893 4.63094C35.1651 4.63094 34.957 4.58392 34.7808 4.48206C34.5967 4.38803 34.4686 4.24699 34.3885 4.0746C34.3084 3.89438 34.2684 3.65147 34.2684 3.34587V1.25372H35.1651V2.77386C35.1651 3.23617 35.1811 3.5261 35.2132 3.62796C35.2452 3.72983 35.3092 3.81602 35.3893 3.87871C35.4774 3.94139 35.5895 3.97274 35.7176 3.97274C35.8697 3.97274 36.0058 3.93356 36.1259 3.84736C36.246 3.76117 36.3261 3.66714 36.3741 3.54177C36.4222 3.4164 36.4382 3.11864 36.4382 2.64849V1.25372H37.3349V4.56042H36.5102ZM32.611 4.56042H31.7143V1.25372H32.547V1.72387C32.6911 1.50447 32.8192 1.35559 32.9313 1.28507C33.0434 1.21454 33.1715 1.17537 33.3156 1.17537C33.5158 1.17537 33.7159 1.23022 33.9001 1.33992L33.6279 2.10782C33.4757 2.01379 33.3396 1.96678 33.2115 1.96678C33.0834 1.96678 32.9793 1.99812 32.8913 2.06864C32.8032 2.13917 32.7391 2.2567 32.6831 2.43692C32.635 2.61715 32.611 2.98543 32.611 3.54177V4.56042ZM28.1914 4.56042V4.06676C28.0713 4.24699 27.9032 4.38019 27.703 4.48206C27.5028 4.58392 27.2867 4.63094 27.0705 4.63094C26.8463 4.63094 26.6381 4.58392 26.462 4.48206C26.2858 4.38803 26.1497 4.24699 26.0697 4.0746C25.9896 3.89438 25.9496 3.65147 25.9496 3.34587V1.25372H26.8463V2.77386C26.8463 3.23617 26.8623 3.5261 26.8943 3.62796C26.9264 3.72983 26.9904 3.81602 27.0705 3.87871C27.1586 3.94139 27.2707 3.97274 27.3988 3.97274C27.5509 3.97274 27.687 3.93356 27.8071 3.84736C27.9272 3.76117 28.0073 3.66714 28.0553 3.54177C28.1033 3.4164 28.1193 3.11864 28.1193 2.64849V1.25372H29.0161V4.56042H28.1914ZM25.3491 1.25372V1.95111H24.7406V3.28319C24.7406 3.5496 24.7486 3.70632 24.7566 3.75333C24.7726 3.80035 24.7966 3.83169 24.8367 3.86303C24.8767 3.89438 24.9327 3.91005 24.9888 3.91005C25.0688 3.91005 25.1889 3.87871 25.3491 3.82386L25.4291 4.49773C25.221 4.58392 24.9888 4.63094 24.7246 4.63094C24.5644 4.63094 24.4203 4.60743 24.2922 4.55258C24.1641 4.49773 24.068 4.42721 24.012 4.34885C23.9479 4.26266 23.9079 4.15296 23.8839 4.00408C23.8679 3.90221 23.8518 3.69848 23.8518 3.38505V1.95111H23.4435V1.25372H23.8518V0.603354L24.7486 0.0940292V1.25372H25.3491ZM20.1448 4.56042V0H21.0415V2.42125L22.0824 1.26156H23.1793L22.0263 2.46827L23.2594 4.56825H22.2986L21.4579 3.07946L21.0415 3.50259V4.56042H20.1448ZM18.4234 2.97759C18.3113 3.01677 18.1272 3.05595 17.8789 3.1108C17.6307 3.16565 17.4706 3.21267 17.3905 3.25968C17.2704 3.33804 17.2144 3.4399 17.2144 3.56528C17.2144 3.69065 17.2624 3.79251 17.3505 3.88654C17.4466 3.97273 17.5587 4.01975 17.7028 4.01975C17.8629 4.01975 18.0151 3.9649 18.1672 3.86303C18.2793 3.78468 18.3433 3.69065 18.3834 3.57311C18.4074 3.50259 18.4154 3.35371 18.4154 3.14998V2.97759H18.4234ZM17.2224 2.26454L16.4137 2.12349C16.5098 1.80223 16.6619 1.56715 16.8861 1.41044C17.1103 1.26156 17.4386 1.1832 17.8789 1.1832C18.2793 1.1832 18.5755 1.23022 18.7677 1.32425C18.9598 1.41827 19.0959 1.53581 19.176 1.67685C19.2561 1.8179 19.2961 2.07648 19.2961 2.46043L19.2881 3.47908C19.2881 3.769 19.3041 3.98057 19.3281 4.12161C19.3602 4.25482 19.4082 4.4037 19.4883 4.56042H18.6075C18.5835 4.50557 18.5515 4.41937 18.5195 4.30184C18.5035 4.24699 18.4955 4.21564 18.4874 4.19997C18.3353 4.34885 18.1752 4.45072 17.999 4.52907C17.8229 4.5996 17.6388 4.63878 17.4386 4.63878C17.0943 4.63878 16.8141 4.54475 16.6139 4.36452C16.4137 4.17647 16.3097 3.94923 16.3097 3.66714C16.3097 3.47908 16.3577 3.31453 16.4458 3.16565C16.5338 3.01677 16.6619 2.90707 16.8301 2.82871C16.9982 2.75035 17.2304 2.67983 17.5427 2.62498C17.959 2.54662 18.2472 2.4761 18.4074 2.41342V2.31939C18.4074 2.147 18.3673 2.02946 18.2793 1.95894C18.1912 1.88842 18.0311 1.84924 17.7989 1.84924C17.6387 1.84924 17.5187 1.88058 17.4306 1.94327C17.3505 2.00596 17.2785 2.10782 17.2224 2.26454ZM14.8765 4.56042H13.9797V1.25372H14.8124V1.72387C14.9566 1.50447 15.0847 1.35559 15.1967 1.28507C15.3088 1.21454 15.4369 1.17537 15.5811 1.17537C15.7812 1.17537 15.9814 1.23022 16.1655 1.33992L15.8853 2.09999C15.7332 2.00596 15.5971 1.95894 15.469 1.95894C15.3409 1.95894 15.2368 1.99029 15.1487 2.06081C15.0606 2.13133 14.9966 2.24887 14.9405 2.42909C14.8925 2.60931 14.8685 2.97759 14.8685 3.53393V4.56042H14.8765ZM13.4033 1.25372V1.95111H12.7948V3.28319C12.7948 3.5496 12.8028 3.70632 12.8108 3.75333C12.8188 3.80035 12.8508 3.83169 12.8909 3.86303C12.9309 3.89438 12.9869 3.91005 13.043 3.91005C13.123 3.91005 13.2431 3.87871 13.4033 3.82386L13.4753 4.49773C13.2672 4.58392 13.035 4.63094 12.7708 4.63094C12.6106 4.63094 12.4665 4.60743 12.3384 4.55258C12.2103 4.49773 12.1142 4.42721 12.0582 4.34885C11.9941 4.26266 11.9541 4.15296 11.9301 4.00408C11.9141 3.90221 11.898 3.69848 11.898 3.38505V1.95111H11.4897V1.25372H11.898V0.603354L12.7948 0.0940292V1.25372H13.4033ZM7.91878 3.62013L8.81552 3.48692C8.85555 3.6593 8.92761 3.78468 9.04771 3.87087C9.1678 3.95706 9.32794 4.00408 9.53611 4.00408C9.7683 4.00408 9.94444 3.9649 10.0565 3.87871C10.1366 3.82386 10.1766 3.7455 10.1766 3.64363C10.1766 3.57311 10.1526 3.51826 10.1126 3.47908C10.0645 3.4399 9.96846 3.40072 9.81634 3.36154C9.09575 3.20483 8.63937 3.06379 8.44721 2.93841C8.183 2.75819 8.04689 2.51528 8.04689 2.19402C8.04689 1.91193 8.15898 1.66902 8.39117 1.47312C8.62336 1.27723 8.98365 1.1832 9.46405 1.1832C9.92843 1.1832 10.2727 1.26156 10.4969 1.4026C10.7211 1.55148 10.8732 1.77088 10.9613 2.05297L10.1206 2.20185C10.0886 2.07648 10.0165 1.97461 9.91242 1.90409C9.80833 1.83357 9.66421 1.80223 9.48006 1.80223C9.24787 1.80223 9.07973 1.83357 8.97565 1.89626C8.91159 1.94327 8.87156 1.99812 8.87156 2.07648C8.87156 2.13917 8.90359 2.19402 8.95963 2.23319C9.0397 2.28804 9.31993 2.37424 9.79232 2.4761C10.2647 2.57797 10.601 2.71118 10.7851 2.86789C10.9693 3.02461 11.0654 3.24401 11.0654 3.51826C11.0654 3.82386 10.9373 4.08244 10.673 4.30184C10.4168 4.52124 10.0325 4.63094 9.5281 4.63094C9.07173 4.63094 8.70342 4.53691 8.43921 4.35669C8.17499 4.17646 8.00685 3.93356 7.91878 3.62013ZM4.58004 4.56042V0H5.47678V2.42125L6.51763 1.25372H7.61453L6.46959 2.46043L7.7026 4.56042H6.74182L5.89312 3.07946L5.47678 3.50259V4.56042H4.58004ZM0.280518 4.56042V0H3.73135V0.775741H1.21729V1.78656H3.5552V2.55446H1.21729V3.79251H3.81942V4.56042H0.280518Z" fill="#006225"/>
<path d="M59.4327 29.9797C59.0084 29.9876 58.6561 30.0816 58.3759 30.2697C58.1036 30.4499 57.8955 30.685 57.7674 30.9514C57.6313 31.2256 57.5672 31.4999 57.5672 31.7741C57.5752 32.1189 57.6473 32.4245 57.7994 32.6909C57.9595 32.9495 58.1757 33.1611 58.4559 33.3099C58.7362 33.4588 59.0644 33.5372 59.4327 33.5372C59.793 33.5293 60.1053 33.4432 60.3615 33.2786C60.6257 33.1062 60.8179 32.8868 60.962 32.6126C61.0981 32.3461 61.1702 32.0484 61.1702 31.735C61.1702 31.492 61.1221 31.2335 61.01 30.9671C60.8979 30.6928 60.7218 30.4656 60.4656 30.2697C60.2094 30.0894 59.8651 29.9876 59.4327 29.9797ZM50.3133 9.17578H55.3013C54.6928 9.9907 54.2765 10.9623 54.0523 12.0985L52.459 20.1223C51.5142 24.5339 50.7856 28.0365 50.2812 30.6536C50.1932 31.1003 50.1531 31.5234 50.1531 31.9073C50.1531 32.4402 50.2332 32.8946 50.3853 33.2551H44.7087C44.9489 32.7849 45.069 32.1973 45.069 31.492C45.069 30.2932 44.9248 28.8201 44.6446 27.0648C44.3404 25.2234 43.2595 20.2399 41.3939 12.1064C41.0897 10.7978 40.6733 9.82615 40.1449 9.18362H45.2291C44.8768 9.77914 44.7007 10.6176 44.7007 11.6911C44.7007 12.3963 44.8127 13.2425 45.0289 14.2299C45.2051 15.0839 45.3892 15.9302 45.5894 16.7686L47.6951 27.7152H47.8232L50.049 16.7686C50.5534 14.3082 50.8017 12.553 50.8017 11.503C50.8017 10.5079 50.6415 9.73212 50.3133 9.17578ZM39.2962 31.6488C39.2962 32.0954 39.1281 32.4794 38.8078 32.7849C38.4795 33.0984 38.0872 33.2473 37.6309 33.2473C37.1745 33.2473 36.7822 33.0905 36.4539 32.7849C36.1256 32.4715 35.9655 32.0954 35.9655 31.6488C35.9655 31.2021 36.1256 30.8182 36.4539 30.4969C36.7822 30.1756 37.1745 30.0189 37.6309 30.0189C38.0872 30.0189 38.4876 30.1756 38.8078 30.4969C39.1361 30.8103 39.2962 31.1943 39.2962 31.6488ZM34.3402 29.2745V33.2551H20.0084C20.4488 32.5891 20.6649 31.6958 20.6649 30.5596V11.8713C20.6649 10.6959 20.4488 9.79481 20.0084 9.17578H32.963V13.1564C32.2825 12.5765 31.3217 12.2866 30.0807 12.2866H23.8516V14.1828H31.4578V16.7843H23.8516V30.1365H31.4578C32.7468 30.1365 33.7076 29.8465 34.3402 29.2745ZM17.4223 31.6488C17.4223 32.0954 17.2622 32.4794 16.9339 32.7849C16.6056 33.0984 16.2133 33.2473 15.7569 33.2473C15.3005 33.2473 14.9002 33.0905 14.58 32.7849C14.2517 32.4715 14.0916 32.0954 14.0916 31.6488C14.0916 31.2021 14.2517 30.8182 14.58 30.4969C14.9082 30.1756 15.3005 30.0189 15.7569 30.0189C16.2133 30.0189 16.6136 30.1756 16.9339 30.4969C17.2541 30.8103 17.4223 31.1943 17.4223 31.6488ZM12.7945 29.2745V33.2551H0C0.440361 32.6752 0.656538 31.7741 0.656538 30.5596V11.8713C0.656538 10.6959 0.440361 9.79481 0 9.17578H4.72387C4.13139 10.2023 3.83514 11.1426 3.83514 11.9967V30.1286H9.90412C10.977 30.1365 11.9378 29.8465 12.7945 29.2745Z" fill="#006225"/>
</g>
</mask>
<g mask="url(#mask0_804_1999)">
<rect x="-4.22363" y="-6.57715" width="66" height="53" fill="white"/>
</g>
<defs>
<clipPath id="clip0_804_1999">
<rect width="61.1702" height="33.5449" fill="white"/>
</clipPath>
</defs>
</svg>
