<?xml version="1.0" encoding="utf-8"?>
<!-- Generator: Adobe Illustrator 24.3.0, SVG Export Plug-In . SVG Version: 6.00 Build 0)  -->
<svg version="1.1" id="Layer_1" xmlns="http://www.w3.org/2000/svg" xmlns:xlink="http://www.w3.org/1999/xlink" x="0px" y="0px"
	 viewBox="0 0 93 50.988" style="enable-background:new 0 0 93 50.988;" xml:space="preserve">
<style type="text/css">
	.st0{fill:#006225;}
</style>
<path class="st0" d="M81.351,4.527c-0.17,0.06-0.45,0.119-0.828,0.203c-0.377,0.083-0.621,0.155-0.743,0.226
	c-0.183,0.119-0.268,0.274-0.268,0.465c0,0.191,0.073,0.345,0.207,0.488c0.146,0.131,0.316,0.203,0.536,0.203
	c0.243,0,0.475-0.083,0.706-0.238c0.17-0.119,0.268-0.262,0.329-0.441c0.036-0.107,0.049-0.334,0.049-0.643V4.527H81.351z
	 M79.537,3.443l-1.229-0.214c0.134-0.488,0.365-0.846,0.706-1.084c0.341-0.226,0.84-0.345,1.509-0.345
	c0.609,0,1.059,0.071,1.351,0.214c0.292,0.143,0.499,0.322,0.621,0.536c0.122,0.214,0.183,0.608,0.183,1.191l-0.012,1.549
	c0,0.441,0.024,0.762,0.061,0.977c0.049,0.203,0.122,0.429,0.243,0.667h-1.339c-0.037-0.083-0.073-0.214-0.122-0.393
	c-0.024-0.083-0.036-0.131-0.049-0.155c-0.231,0.226-0.475,0.381-0.743,0.5c-0.268,0.107-0.548,0.167-0.852,0.167
	c-0.523,0-0.949-0.143-1.254-0.417c-0.304-0.286-0.463-0.631-0.463-1.06c0-0.286,0.073-0.536,0.207-0.762
	c0.134-0.226,0.329-0.393,0.584-0.512c0.243-0.119,0.609-0.226,1.083-0.31c0.633-0.119,1.071-0.226,1.315-0.322V3.526
	c0-0.262-0.061-0.441-0.195-0.548c-0.134-0.107-0.365-0.167-0.73-0.167c-0.243,0-0.426,0.048-0.56,0.143
	C79.732,3.05,79.623,3.205,79.537,3.443z M77.492,3.395l-1.339,0.238c-0.049-0.262-0.146-0.453-0.304-0.596
	c-0.17-0.131-0.377-0.191-0.621-0.191c-0.341,0-0.609,0.119-0.816,0.345c-0.207,0.226-0.304,0.608-0.304,1.144
	c0,0.596,0.097,1.013,0.304,1.263c0.207,0.25,0.475,0.369,0.828,0.369c0.256,0,0.463-0.071,0.633-0.214
	c0.17-0.143,0.28-0.393,0.353-0.739l1.339,0.226C77.432,5.837,77.164,6.29,76.762,6.6c-0.39,0.31-0.913,0.465-1.583,0.465
	c-0.755,0-1.351-0.226-1.789-0.691c-0.45-0.465-0.67-1.108-0.67-1.93c0-0.834,0.219-1.477,0.67-1.93
	c0.45-0.465,1.059-0.691,1.814-0.691c0.621,0,1.12,0.131,1.497,0.393C77.066,2.454,77.322,2.859,77.492,3.395z M69.373,1.084V0.203
	h3.116v0.87h-3.116V1.084z M70.262,6.933V1.906h1.363v5.027H70.262z M68.886,6.933h-1.363V4.372c0-0.548-0.024-0.893-0.085-1.048
	c-0.061-0.155-0.158-0.286-0.28-0.369c-0.134-0.083-0.292-0.131-0.475-0.131c-0.231,0-0.45,0.06-0.633,0.191
	c-0.182,0.131-0.316,0.298-0.389,0.5c-0.073,0.203-0.109,0.596-0.109,1.156v2.275h-1.363V1.906h1.266v0.739
	c0.45-0.572,1.01-0.858,1.692-0.858c0.304,0,0.572,0.048,0.816,0.155c0.243,0.107,0.438,0.238,0.56,0.405
	c0.122,0.167,0.219,0.345,0.268,0.56c0.049,0.203,0.073,0.5,0.073,0.893v3.133H68.886z M59.477,4.336c0,0.56,0.11,0.977,0.341,1.251
	c0.231,0.274,0.511,0.405,0.84,0.405c0.317,0,0.572-0.119,0.791-0.369c0.207-0.25,0.316-0.655,0.316-1.215
	c0-0.524-0.109-0.917-0.329-1.179c-0.219-0.25-0.487-0.381-0.803-0.381c-0.329,0-0.609,0.119-0.828,0.381
	C59.586,3.479,59.477,3.848,59.477,4.336z M58.138,1.906h1.266v0.739c0.158-0.25,0.389-0.453,0.67-0.619
	c0.28-0.155,0.597-0.238,0.937-0.238c0.597,0,1.108,0.226,1.522,0.691c0.414,0.453,0.621,1.096,0.621,1.906
	c0,0.834-0.207,1.489-0.633,1.954c-0.414,0.465-0.925,0.703-1.521,0.703c-0.28,0-0.536-0.06-0.767-0.167
	C60,6.767,59.757,6.576,59.501,6.302V8.84h-1.363V1.906z M52.879,1.084V0.203h3.116v0.87h-3.116V1.084z M55.508,6.933V6.183
	c-0.183,0.274-0.438,0.477-0.743,0.631c-0.304,0.155-0.621,0.226-0.962,0.226c-0.341,0-0.657-0.071-0.925-0.226
	c-0.28-0.143-0.475-0.357-0.597-0.619C52.161,5.921,52.1,5.552,52.1,5.087V1.906h1.363v2.311c0,0.703,0.024,1.144,0.073,1.299
	c0.049,0.155,0.146,0.286,0.268,0.381c0.134,0.095,0.304,0.143,0.499,0.143c0.231,0,0.438-0.06,0.621-0.191
	c0.183-0.131,0.304-0.274,0.377-0.465c0.073-0.191,0.097-0.643,0.097-1.358V1.906h1.363v5.027H55.508z M49.58,6.933h-1.363V1.906
	h1.266v0.715c0.219-0.334,0.414-0.56,0.584-0.667s0.365-0.167,0.584-0.167c0.304,0,0.609,0.083,0.889,0.25l-0.414,1.167
	c-0.231-0.143-0.438-0.214-0.633-0.214c-0.195,0-0.353,0.048-0.487,0.155c-0.134,0.107-0.231,0.286-0.316,0.56
	c-0.073,0.274-0.11,0.834-0.11,1.68V6.933z M42.861,6.933V6.183c-0.183,0.274-0.438,0.477-0.743,0.631
	c-0.304,0.155-0.633,0.226-0.962,0.226c-0.341,0-0.657-0.071-0.925-0.226c-0.268-0.143-0.475-0.357-0.597-0.619
	c-0.122-0.274-0.183-0.643-0.183-1.108V1.906h1.363v2.311c0,0.703,0.024,1.144,0.073,1.299c0.049,0.155,0.146,0.286,0.268,0.381
	c0.134,0.095,0.304,0.143,0.499,0.143c0.231,0,0.438-0.06,0.621-0.191c0.183-0.131,0.304-0.274,0.377-0.465
	c0.073-0.191,0.097-0.643,0.097-1.358V1.906h1.363v5.027H42.861z M38.54,1.906v1.06h-0.925v2.025c0,0.405,0.012,0.643,0.024,0.715
	c0.024,0.071,0.061,0.119,0.122,0.167c0.061,0.048,0.146,0.071,0.231,0.071c0.122,0,0.304-0.048,0.548-0.131l0.122,1.025
	c-0.317,0.131-0.67,0.203-1.071,0.203c-0.243,0-0.463-0.036-0.657-0.119c-0.195-0.083-0.341-0.191-0.426-0.31
	c-0.097-0.131-0.158-0.298-0.195-0.524c-0.024-0.155-0.049-0.465-0.049-0.941v-2.18h-0.621v-1.06h0.621V0.917l1.363-0.774v1.763
	H38.54z M30.627,6.933V0h1.363v3.681l1.583-1.763h1.668l-1.753,1.835l1.875,3.193h-1.461l-1.278-2.263L31.99,5.325v1.608H30.627z
	 M28.01,4.527c-0.17,0.06-0.45,0.119-0.828,0.203c-0.377,0.083-0.621,0.155-0.743,0.226c-0.183,0.119-0.268,0.274-0.268,0.465
	c0,0.191,0.073,0.345,0.207,0.488c0.146,0.131,0.316,0.203,0.536,0.203c0.243,0,0.475-0.083,0.706-0.238
	c0.17-0.119,0.268-0.262,0.329-0.441c0.037-0.107,0.049-0.334,0.049-0.643V4.527H28.01z M26.184,3.443l-1.229-0.214
	c0.146-0.488,0.377-0.846,0.718-1.084c0.341-0.226,0.84-0.345,1.509-0.345c0.609,0,1.059,0.071,1.351,0.214
	c0.292,0.143,0.499,0.322,0.621,0.536c0.122,0.214,0.183,0.608,0.183,1.191l-0.012,1.549c0,0.441,0.024,0.762,0.061,0.977
	c0.049,0.203,0.122,0.429,0.243,0.667H28.29c-0.037-0.083-0.085-0.214-0.134-0.393c-0.024-0.083-0.036-0.131-0.049-0.155
	c-0.231,0.226-0.475,0.381-0.743,0.5c-0.268,0.107-0.548,0.167-0.852,0.167c-0.524,0-0.95-0.143-1.254-0.417
	c-0.304-0.286-0.463-0.631-0.463-1.06c0-0.286,0.073-0.536,0.207-0.762c0.134-0.226,0.329-0.393,0.584-0.512
	c0.256-0.119,0.609-0.226,1.083-0.31c0.633-0.119,1.071-0.226,1.315-0.322V3.526c0-0.262-0.061-0.441-0.195-0.548
	c-0.134-0.107-0.377-0.167-0.73-0.167c-0.243,0-0.426,0.048-0.56,0.143C26.379,3.05,26.269,3.205,26.184,3.443z M22.618,6.933
	h-1.363V1.906h1.266v0.715c0.219-0.334,0.414-0.56,0.584-0.667c0.17-0.107,0.365-0.167,0.584-0.167c0.304,0,0.609,0.083,0.889,0.25
	l-0.426,1.156c-0.231-0.143-0.438-0.214-0.633-0.214c-0.195,0-0.353,0.048-0.487,0.155c-0.134,0.107-0.231,0.286-0.317,0.56
	c-0.073,0.274-0.11,0.834-0.11,1.68v1.561H22.618z M20.378,1.906v1.06h-0.925v2.025c0,0.405,0.012,0.643,0.024,0.715
	c0.012,0.071,0.061,0.119,0.122,0.167c0.061,0.048,0.146,0.071,0.231,0.071c0.122,0,0.304-0.048,0.548-0.131l0.109,1.025
	c-0.316,0.131-0.67,0.203-1.071,0.203c-0.243,0-0.462-0.036-0.657-0.119c-0.195-0.083-0.341-0.191-0.426-0.31
	c-0.097-0.131-0.158-0.298-0.195-0.524c-0.024-0.155-0.049-0.465-0.049-0.941v-2.18h-0.621v-1.06h0.621V0.917l1.363-0.774v1.763
	H20.378z M12.039,5.504l1.363-0.203c0.061,0.262,0.17,0.453,0.353,0.584c0.183,0.131,0.426,0.203,0.743,0.203
	c0.353,0,0.621-0.06,0.791-0.191c0.122-0.083,0.183-0.203,0.183-0.357c0-0.107-0.037-0.191-0.097-0.25
	c-0.073-0.06-0.219-0.119-0.45-0.179c-1.096-0.238-1.789-0.453-2.082-0.643c-0.402-0.274-0.609-0.643-0.609-1.132
	c0-0.429,0.17-0.798,0.523-1.096c0.353-0.298,0.901-0.441,1.631-0.441c0.706,0,1.229,0.119,1.57,0.334
	c0.341,0.226,0.572,0.56,0.706,0.989l-1.278,0.226c-0.049-0.191-0.158-0.345-0.316-0.453c-0.158-0.107-0.377-0.155-0.657-0.155
	c-0.353,0-0.609,0.048-0.767,0.143c-0.097,0.071-0.158,0.155-0.158,0.274c0,0.095,0.049,0.179,0.134,0.238
	c0.122,0.083,0.548,0.214,1.266,0.369c0.718,0.155,1.229,0.357,1.509,0.596c0.28,0.238,0.426,0.572,0.426,0.989
	c0,0.465-0.195,0.858-0.596,1.191c-0.39,0.334-0.974,0.5-1.741,0.5c-0.694,0-1.254-0.143-1.656-0.417
	C12.429,6.35,12.173,5.98,12.039,5.504z M6.963,6.933V0h1.363v3.681l1.582-1.775h1.668L9.836,3.741l1.875,3.193H10.25L8.96,4.682
	L8.327,5.325v1.608H6.963z M0.427,6.933V0h5.246v1.179H1.851v1.537h3.554v1.167H1.851v1.882h3.956v1.167H0.427z"/>
<path class="st0" d="M90.358,45.58c-0.645,0.012-1.181,0.155-1.607,0.441c-0.414,0.274-0.73,0.631-0.925,1.036
	c-0.207,0.417-0.304,0.834-0.304,1.251c0.012,0.524,0.122,0.989,0.353,1.394c0.243,0.393,0.572,0.715,0.998,0.941
	c0.426,0.226,0.925,0.346,1.485,0.346c0.548-0.012,1.022-0.143,1.412-0.393c0.402-0.262,0.694-0.596,0.913-1.013
	C92.89,49.177,93,48.725,93,48.248c0-0.369-0.073-0.762-0.243-1.167c-0.17-0.417-0.438-0.763-0.828-1.06
	C91.539,45.746,91.016,45.591,90.358,45.58z M76.494,13.95h7.584c-0.925,1.239-1.558,2.716-1.899,4.444l-2.422,12.199
	c-1.436,6.707-2.544,12.032-3.311,16.011c-0.134,0.679-0.195,1.322-0.195,1.906c0,0.81,0.122,1.501,0.353,2.049h-8.631
	c0.365-0.715,0.548-1.608,0.548-2.681c0-1.823-0.219-4.062-0.645-6.731c-0.463-2.799-2.106-10.376-4.942-22.742
	c-0.463-1.99-1.096-3.467-1.899-4.444h7.73c-0.536,0.905-0.803,2.18-0.803,3.812c0,1.072,0.17,2.359,0.499,3.86
	c0.268,1.299,0.548,2.585,0.852,3.86l3.201,16.643h0.195l3.384-16.643c0.767-3.741,1.144-6.409,1.144-8.006
	C77.236,15.976,76.993,14.796,76.494,13.95z M59.744,48.117c0,0.679-0.256,1.263-0.743,1.727c-0.499,0.476-1.096,0.703-1.789,0.703
	c-0.694,0-1.29-0.238-1.789-0.703c-0.499-0.477-0.743-1.048-0.743-1.727c0-0.679,0.243-1.263,0.743-1.751
	c0.499-0.488,1.096-0.727,1.789-0.727c0.694,0,1.302,0.238,1.789,0.727C59.5,46.842,59.744,47.426,59.744,48.117z M52.209,44.507
	v6.052H30.42c0.67-1.013,0.998-2.371,0.998-4.098V18.048c0-1.787-0.329-3.157-0.998-4.098h19.695v6.052
	c-1.035-0.882-2.495-1.322-4.382-1.322h-9.47v2.883h11.564v3.955H36.263v20.3h11.564C49.787,45.818,51.247,45.377,52.209,44.507z
	 M26.488,48.117c0,0.679-0.244,1.263-0.743,1.727c-0.499,0.476-1.095,0.703-1.789,0.703c-0.694,0-1.302-0.238-1.789-0.703
	c-0.499-0.477-0.742-1.048-0.742-1.727c0-0.679,0.243-1.263,0.742-1.751c0.499-0.488,1.096-0.727,1.789-0.727
	c0.694,0,1.302,0.238,1.789,0.727C26.232,46.842,26.488,47.426,26.488,48.117z M19.452,44.507v6.052H0
	c0.67-0.882,0.998-2.252,0.998-4.098V18.048c0-1.787-0.329-3.157-0.998-4.098h7.182c-0.901,1.561-1.351,2.99-1.351,4.289v27.567
	h9.227C16.689,45.818,18.15,45.377,19.452,44.507z"/>
</svg>
